15_ID_stride3.mot
nRows=11
nColumns=38

name 15_ID_stride3.mot
datacolumns 38
datarows 11
range 1.8050000000 1.8550000000
endheader
time	pelvis_tilt_moment	pelvis_list_moment	pelvis_rotation_moment	pelvis_tx_force	pelvis_ty_force	pelvis_tz_force	hip_flexion_r_moment	hip_adduction_r_moment	hip_rotation_r_moment	knee_angle_r_moment	ankle_angle_r_moment	subtalar_angle_r_moment	mtp_angle_r_moment	hip_flexion_l_moment	hip_adduction_l_moment	hip_rotation_l_moment	knee_angle_l_moment	ankle_angle_l_moment	subtalar_angle_l_moment	mtp_angle_l_moment	lumbar_extension_moment	lumbar_bending_moment	lumbar_rotation_moment	arm_flex_r_moment	arm_add_r_moment	arm_rot_r_moment	elbow_flex_r_moment	pro_sup_r_moment	wrist_flex_r_moment	wrist_dev_r_moment	arm_flex_l_moment	arm_add_l_moment	arm_rot_l_moment	elbow_flex_l_moment	pro_sup_l_moment	wrist_flex_l_moment	wrist_dev_l_moment
        1.8050000000	      -10.4356797965	       -7.0825890194	      -17.5091143143	       49.4656492843	      -27.5832014985	      -35.7844945654	        0.9021985175	      -23.5762601990	       -0.5672479955	       -5.7238267206	     -159.6814354195	       34.1431763952	       -0.0703784815	      -10.8135610514	        1.2457460303	       -2.2623713492	       -2.8257381843	        1.8987086085	       -0.0354469599	        0.0998502917	       16.3312448860	        3.6728807745	      -34.8346824032	        0.2727141451	       -2.4798260403	       -3.3924027843	        3.9884488019	       -0.1906509365	       -0.2973681361	       -0.4160075576	        7.0956337374	        5.2420957434	        3.7500071353	        4.2808587972	        0.0277984758	        0.4809187104	       -0.2726202413	
        1.8100000000	       -8.2605599867	      -18.8398060933	      -10.9015415218	       72.9804419685	      -16.7847265389	      -17.6223720909	       -4.8922520224	      -22.7777052292	        1.6390415818	      -15.2548096865	     -142.9856080398	       30.8474397783	       -0.0719053106	      -11.2544929300	        0.7151753188	       -2.6953856422	       -3.2392968140	        2.0916326530	       -0.0626265182	        0.1146346626	       10.7595026303	        4.9007403466	      -32.0880321425	       -0.1576005261	       -2.6333168405	       -3.2424643113	        3.3090600777	       -0.1716896249	       -0.2904050420	       -0.3503580289	        6.1162339276	        4.9893359903	        3.5716659722	        3.5878307204	        0.0352649378	        0.4446715578	       -0.2145918557	
        1.8150000000	       -6.8652184781	      -21.8691064497	       -4.0522547079	       93.2840235024	      -16.9563898092	       -2.0690067349	       -4.3670414751	      -22.1928683375	        4.0121199432	      -20.8769975796	     -125.2898854785	       26.7280899023	       -0.0651330553	      -11.8387546682	        0.0606032965	       -2.8322666667	       -3.7323738421	        2.2918703648	       -0.1122481960	        0.1302824928	        5.8975051097	        6.9311800715	      -28.8489642621	       -0.6828761548	       -2.6506403830	       -2.9921835579	        2.5609992242	       -0.1489965318	       -0.2749041510	       -0.2775579831	        4.9949432289	        4.5863564372	        3.3081051931	        2.8513915879	        0.0419951859	        0.4000291682	       -0.1546135592	
        1.8200000000	       -9.1644775102	      -13.3184155836	       -0.2532262077	       96.3381877944	      -31.2335714144	        6.6451248300	        3.7550657346	      -17.6379518823	        3.0415099143	      -18.8209342907	     -105.5206094787	       22.2356952036	       -0.0491753873	      -12.8251344490	       -0.8132856509	       -2.6252373914	       -4.1792113199	        2.4779042107	       -0.1826911352	        0.1449313072	        1.9291006797	        9.3547353430	      -25.2235965830	       -1.2770013845	       -2.5245310425	       -2.6280543551	        1.7455471934	       -0.1223916009	       -0.2506051216	       -0.1980689158	        3.7923439700	        3.9840060299	        2.9364510620	        2.0780020180	        0.0474568812	        0.3455082321	       -0.0940436989	
        1.8250000000	      -14.9641747436	        5.7913089065	        1.0166067327	       95.9541215285	      -66.0368607765	       13.2288250854	       19.4011484820	       -8.1410674846	        0.2089875108	      -13.3877803564	      -85.1603552705	       18.1740217970	       -0.0228958086	      -14.2196903165	       -1.7591503881	       -2.1190177128	       -4.4774037842	        2.6374452491	       -0.2648571365	        0.1576626823	       -1.1779237428	       11.7559247187	      -21.3349566099	       -1.8994363752	       -2.1989991109	       -2.1584404949	        0.8928894464	       -0.0927458033	       -0.2179611021	       -0.1147216259	        2.5657169180	        3.1860406003	        2.4610514539	        1.2927612879	        0.0508579896	        0.2823405215	       -0.0349721758	
        1.8300000000	      -23.0611501851	       27.0331479597	        0.4657821450	       77.5056685328	     -117.3398054816	       19.7447748070	       34.0537429076	        4.1871367287	       -4.1610100529	       -6.5072129599	      -65.8274748072	       15.1711864287	        0.0155715287	      -16.0523409569	       -2.5598220229	       -1.4294147554	       -4.5995010712	        2.7578090677	       -0.3475989164	        0.1675639758	       -3.3380744127	       13.7411959546	      -17.2514338187	       -2.5113044580	       -1.6615752595	       -1.5756650572	        0.0308161852	       -0.0604555829	       -0.1761687162	       -0.0299601972	        1.3672346886	        2.1652904576	        1.8679274505	        0.5220668956	        0.0521431397	        0.2101571735	        0.0200469000	
        1.8350000000	      -28.4004296499	       40.7642285854	        0.8009365739	       53.7535433488	     -172.2938374354	       31.6074300371	       40.3580827551	       13.8095870226	       -5.9178872109	       -4.1703325271	      -49.8978333829	       13.1081562143	        0.0646071605	      -18.1464197571	       -2.7903965969	       -0.8025089781	       -4.6048226264	        2.8319529411	       -0.4146042688	        0.1743844914	       -4.6035194832	       15.0569977100	      -13.1117290123	       -3.0587187005	       -0.9481456889	       -0.9103850687	       -0.7742489225	       -0.0275213539	       -0.1268013200	        0.0504676557	        0.2573711462	        0.9868739230	        1.1896715989	       -0.1786420725	        0.0499463187	        0.1327564392	        0.0670869139	
        1.8400000000	      -26.7524162106	       40.3122852679	        3.0760788277	       28.6182880540	     -216.4449311488	       47.9039014363	       36.7432484984	       14.5627692657	       -3.9528698046	       -6.7082628152	      -37.6519039791	       10.8062518333	        0.1221759278	      -20.2331388744	       -2.2820095674	       -0.3937271218	       -4.6971521056	        2.8583258584	       -0.4544924656	        0.1784888673	       -4.9667414119	       15.3264292478	       -9.0492046838	       -3.4958341097	       -0.0875541067	       -0.1912358680	       -1.4509723968	        0.0038788936	       -0.0711345870	        0.1203930280	       -0.7069612842	       -0.2825657034	        0.4596113902	       -0.7478687488	        0.0440960989	        0.0542772947	        0.1024235314	
        1.8450000000	      -20.1353818306	       34.1510304579	        6.6935720488	        3.4823303715	     -219.1079392245	       59.2031615957	       27.6233593245	       11.8210414812	        0.5764461449	      -11.9995322335	      -27.7053752346	        7.6213628372	        0.1844731122	      -21.9266847211	       -0.9284150264	       -0.3619527502	       -5.0729698567	        2.8556258325	       -0.4563490358	        0.1804156118	       -4.8670723920	       15.0002897266	       -5.2671382058	       -3.7004818936	        0.8748220449	        0.5398936371	       -1.8850791629	        0.0306913499	       -0.0113825966	        0.1712707548	       -1.4346886560	       -1.5505320560	       -0.2760033347	       -1.0575687197	        0.0337644173	       -0.0195687261	        0.1116807531	
        1.8500000000	       -8.8332348231	       20.9486702639	        9.2358054777	      -22.0783624439	     -201.5817349522	       64.4658267191	       17.5817318320	        4.6980327085	        5.1697348861	      -16.0869303316	      -18.7374792820	        3.8003559925	        0.2471738109	      -23.1190164456	        1.1709165907	       -0.4645366164	       -5.9512206717	        2.8355431385	       -0.4418055631	        0.1812134818	       -4.5263366043	       13.7075703257	       -1.8803328724	       -3.7789372534	        1.8752921202	        1.2429692383	       -2.0975904239	        0.0518706587	        0.0491656516	        0.2014103360	       -1.9036174464	       -2.7437687924	       -0.9780785822	       -1.1917010237	        0.0193526167	       -0.0855215289	        0.1136046989	
        1.8550000000	        1.7301910081	       10.3623673826	        8.0445337014	      -49.9213347059	     -131.3998990930	       48.7551798509	       13.1588582463	        1.4787876698	        6.8995238132	      -16.1164482999	       -9.5076060541	        0.1838557009	        0.3049167185	      -23.7033393611	        3.6333204135	       -0.8089357797	       -7.4595467242	        2.8071997067	       -0.3993031181	        0.1807409189	       -4.3836704157	       11.8140543472	        0.8944596727	       -3.5948323720	        2.8349399812	        1.8636986527	       -2.0295621400	        0.0656334244	        0.1061425349	        0.2077186883	       -2.0623266151	       -3.7646031018	       -1.5941259550	       -1.0471136203	        0.0018565080	       -0.1385539986	        0.0913476315	
